# xmcd
#
# Track frame offsets: 
#        150
#        30498
#        48517
#        78520
#        95651
#        118942
#        141284
#        150333
#        163297
#        189304
#        208993
#        218470
#        219220
#
# Disc length: 3589 seconds
#
# Revision: 3
# Processed by: cddbd v1.5.1PL2 Copyright (c) Steve Scherf et al.
# Submitted via: ExactAudioCopy v0.95a5
#
DISCID=b50e030d
DTITLE=Courtney Pine - Resistance
DYEAR=2005
DGENRE=Jazz
TTITLE0=Good Morning (Magundung Umaga)
TTITLE1=Right On!
TTITLE2=Southern Skandinavian Blues
TTITLE3=Soul Power U!
TTITLE4=Rising Sun
TTITLE5=Sunchilde
TTITLE6=Joan Of Arc
TTITLE7=And Then The World Stood Still And Prayed
TTITLE8=Resistance
TTITLE9=On The Down Low
TTITLE10=Outro - Vibranium
TTITLE11=_____
TTITLE12=Hidden Track
EXTD=YEAR: 2005
EXTT0=
EXTT1=
EXTT2=
EXTT3=
EXTT4=
EXTT5=
EXTT6=
EXTT7=
EXTT8=
EXTT9=
EXTT10=
EXTT11=
EXTT12=
PLAYORDER=
